<svg width="24" height="24" viewBox="0 0 24 24" fill="none" xmlns="http://www.w3.org/2000/svg">
<path fill-rule="evenodd" clip-rule="evenodd" d="M6.7679 1.25L12 1.25C12.4142 1.25 12.75 1.58579 12.75 2C12.75 2.41421 12.4142 2.75 12 2.75H6.8C5.94755 2.75 5.35331 2.75058 4.89068 2.78838C4.4368 2.82547 4.17604 2.8946 3.97852 2.99524C3.55516 3.21095 3.21095 3.55516 2.99524 3.97852C2.8946 4.17604 2.82547 4.4368 2.78838 4.89068C2.75058 5.35331 2.75 5.94755 2.75 6.8V17.2C2.75 18.0525 2.75058 18.6467 2.78838 19.1093C2.82547 19.5632 2.8946 19.824 2.99524 20.0215C3.21095 20.4448 3.55516 20.789 3.97852 21.0048C4.17604 21.1054 4.4368 21.1745 4.89068 21.2116C5.35331 21.2494 5.94755 21.25 6.8 21.25H17.2C18.0525 21.25 18.6467 21.2494 19.1093 21.2116C19.5632 21.1745 19.824 21.1054 20.0215 21.0048C20.4448 20.789 20.789 20.4448 21.0048 20.0215C21.1054 19.824 21.1745 19.5632 21.2116 19.1093C21.2494 18.6467 21.25 18.0525 21.25 17.2V12C21.25 11.5858 21.5858 11.25 22 11.25C22.4142 11.25 22.75 11.5858 22.75 12V17.2321C22.75 18.045 22.75 18.7006 22.7066 19.2315C22.662 19.7781 22.5676 20.2582 22.3413 20.7025C21.9817 21.4081 21.4081 21.9817 20.7025 22.3413C20.2582 22.5676 19.7781 22.662 19.2315 22.7066C18.7006 22.75 18.045 22.75 17.2321 22.75H6.76788C5.95505 22.75 5.29944 22.75 4.76853 22.7066C4.2219 22.662 3.74175 22.5676 3.29754 22.3413C2.59193 21.9817 2.01825 21.4081 1.65873 20.7025C1.43239 20.2582 1.33803 19.7781 1.29336 19.2315C1.24999 18.7006 1.24999 18.0449 1.25 17.2321V6.7679C1.24999 5.95506 1.24999 5.29944 1.29336 4.76853C1.33803 4.2219 1.43239 3.74175 1.65873 3.29754C2.01825 2.59193 2.59193 2.01825 3.29754 1.65873C3.74175 1.43239 4.2219 1.33803 4.76853 1.29336C5.29944 1.24999 5.95506 1.24999 6.7679 1.25Z" fill="#282930"/>
<path fill-rule="evenodd" clip-rule="evenodd" d="M16.6117 2.30316C18.016 0.898948 20.2926 0.898947 21.6968 2.30316C23.1011 3.70737 23.1011 5.98405 21.6968 7.38826L13.9286 15.1565C13.2264 15.8587 12.3077 16.3033 11.3213 16.4182L8.54044 16.7422C7.79925 16.8285 7.17149 16.2008 7.25784 15.4596L7.58183 12.6787C7.69675 11.6923 8.14131 10.7736 8.84351 10.0714L16.6117 2.30316ZM20.6362 3.36382C19.8178 2.54539 18.4908 2.54539 17.6724 3.36382L9.90417 11.1321C9.44088 11.5953 9.14757 12.2015 9.07175 12.8523L8.79799 15.202L11.1477 14.9283C11.7985 14.8524 12.4047 14.5591 12.8679 14.0958L20.6362 6.3276C21.4546 5.50917 21.4546 4.18224 20.6362 3.36382Z" fill="#282930"/>
</svg>
