<svg width="24" height="24" viewBox="0 0 24 24" fill="none" xmlns="http://www.w3.org/2000/svg">
<path d="M9.40039 4.25C10.1457 4.25021 10.7498 4.85434 10.75 5.59961V18.4004C10.7498 19.1457 10.1457 19.7498 9.40039 19.75H6.59961C5.85433 19.7498 5.25021 19.1457 5.25 18.4004V5.59961C5.25021 4.85433 5.85433 4.25021 6.59961 4.25H9.40039ZM17.4004 4.25C18.1457 4.25021 18.7498 4.85434 18.75 5.59961V18.4004C18.7498 19.1457 18.1457 19.7498 17.4004 19.75H14.5996C13.8543 19.7498 13.2502 19.1457 13.25 18.4004V5.59961C13.2502 4.85433 13.8543 4.25021 14.5996 4.25H17.4004ZM6.75 18.25H9.25V5.75H6.75V18.25ZM14.75 18.25H17.25V5.75H14.75V18.25Z" fill="#292927"/>
</svg>
