<svg width="24" height="24" viewBox="0 0 24 24" fill="none" xmlns="http://www.w3.org/2000/svg">
<path fill-rule="evenodd" clip-rule="evenodd" d="M2.46967 2.46967C2.76256 2.17678 3.23744 2.17678 3.53033 2.46967L7.53407 6.47341C7.89251 6.35401 8.27713 6.28954 8.67586 6.28954H9.30119C9.77176 6.28954 10.2199 6.13447 10.5667 5.86237L13.7283 3.38161C14.6046 2.694 15.7106 2.60345 16.6147 2.93903C17.5215 3.27557 18.2908 4.07077 18.3987 5.19146C18.8245 9.61644 18.8633 13.1511 18.5147 17.454L21.5303 20.4697C21.8232 20.7626 21.8232 21.2374 21.5303 21.5303C21.2374 21.8232 20.7626 21.8232 20.4697 21.5303L2.46967 3.53033C2.17678 3.23744 2.17678 2.76256 2.46967 2.46967ZM17.1131 16.0524C17.349 12.4015 17.2802 9.2282 16.9056 5.33513C16.8616 4.87812 16.5525 4.51593 16.0928 4.34529C15.6304 4.17368 15.0819 4.22616 14.6543 4.5617L11.4926 7.04246C10.8731 7.52856 10.0964 7.78954 9.30119 7.78954H8.8502L17.1131 16.0524ZM6 8.77088C6.41421 8.77088 6.75 9.10667 6.75 9.52088V14.4836C6.75 15.3875 7.55793 16.2149 8.67586 16.2149H9.30119C10.0964 16.2149 10.8731 16.4759 11.4926 16.962L14.6485 19.4382C14.9372 19.6648 15.2772 19.7613 15.6116 19.749C15.6933 19.7459 15.7745 19.7364 15.8541 19.7206C15.9399 19.7036 16.0234 19.6794 16.1033 19.6487C16.49 19.5003 16.9238 19.6934 17.0722 20.0801C17.2207 20.4668 17.0275 20.9007 16.6408 21.0491C16.4807 21.1106 16.315 21.1584 16.1459 21.1919C15.9889 21.2231 15.8287 21.242 15.6669 21.2479C15.003 21.2725 14.3094 21.0788 13.7225 20.6183L10.5667 18.1421L11.0296 17.552L10.5667 18.1421C10.2199 17.87 9.77176 17.7149 9.30119 17.7149H8.67586C6.83812 17.7149 5.25 16.3205 5.25 14.4836V9.52088C5.25 9.10667 5.58579 8.77088 6 8.77088Z" fill="#282930"/>
</svg>
