<svg width="24" height="24" viewBox="0 0 24 24" fill="none" xmlns="http://www.w3.org/2000/svg">
<path fill-rule="evenodd" clip-rule="evenodd" d="M16.126 8.58396C16.3557 8.23931 16.8214 8.14618 17.166 8.37595L17.1672 8.37675L17.1686 8.37764L17.1716 8.37973L17.1795 8.38508L17.2015 8.40049C17.2189 8.41286 17.2416 8.42945 17.269 8.45029C17.3236 8.49191 17.3969 8.55075 17.4826 8.62693C17.6535 8.77877 17.877 9.00267 18.1 9.29999C18.5477 9.89686 19 10.8009 19 12C19 13.1991 18.5477 14.1031 18.1 14.7C17.877 14.9973 17.6535 15.2212 17.4826 15.373C17.3969 15.4492 17.3236 15.5081 17.269 15.5497C17.2416 15.5705 17.2189 15.5871 17.2015 15.5995L17.1795 15.6149L17.1716 15.6202L17.1686 15.6223L17.1672 15.6232C17.1655 15.6243 17.166 15.624 17.166 15.624C16.8214 15.8538 16.3557 15.7607 16.126 15.416C15.8972 15.0728 15.9885 14.6096 16.3296 14.3789L16.3322 14.3771C16.3368 14.3738 16.3463 14.367 16.3599 14.3565C16.3873 14.3357 16.4312 14.3007 16.4861 14.2519C16.5965 14.1538 16.748 14.0027 16.9 13.8C17.2023 13.3969 17.5 12.8009 17.5 12C17.5 11.1991 17.2023 10.6031 16.9 10.2C16.748 9.9973 16.5965 9.8462 16.4861 9.74804C16.4312 9.69922 16.3873 9.66431 16.3599 9.64343C16.3463 9.63302 16.3368 9.62618 16.3322 9.62292L16.3296 9.62112M16.126 8.58396C15.8972 8.92716 15.9886 9.39035 16.3296 9.62112L16.126 8.58396Z" fill="#282930"/>
<path fill-rule="evenodd" clip-rule="evenodd" d="M16.126 8.58396C16.3557 8.23931 16.8214 8.14618 17.166 8.37595L17.1672 8.37675L17.1686 8.37764L17.1716 8.37973L17.1795 8.38508L17.2015 8.40049C17.2189 8.41286 17.2416 8.42945 17.269 8.45029C17.3236 8.49191 17.3969 8.55075 17.4826 8.62693C17.6535 8.77877 17.877 9.00267 18.1 9.29999C18.5477 9.89686 19 10.8009 19 12C19 13.1991 18.5477 14.1031 18.1 14.7C17.877 14.9973 17.6535 15.2212 17.4826 15.373C17.3969 15.4492 17.3236 15.5081 17.269 15.5497C17.2416 15.5705 17.2189 15.5871 17.2015 15.5995L17.1795 15.6149L17.1716 15.6202L17.1686 15.6223L17.1672 15.6232C17.1655 15.6243 17.166 15.624 17.166 15.624C16.8214 15.8538 16.3557 15.7607 16.126 15.416C15.8972 15.0728 15.9885 14.6096 16.3296 14.3789L16.3322 14.3771C16.3368 14.3738 16.3463 14.367 16.3599 14.3565C16.3873 14.3357 16.4312 14.3007 16.4861 14.2519C16.5965 14.1538 16.748 14.0027 16.9 13.8C17.2023 13.3969 17.5 12.8009 17.5 12C17.5 11.1991 17.2023 10.6031 16.9 10.2C16.748 9.9973 16.5965 9.8462 16.4861 9.74804C16.4312 9.69922 16.3873 9.66431 16.3599 9.64343C16.3463 9.63302 16.3368 9.62618 16.3322 9.62292L16.3296 9.62112M16.126 8.58396C15.8972 8.92716 15.9886 9.39035 16.3296 9.62112L16.126 8.58396Z" fill="#282930"/>
<path d="M17.9143 5.53146C18.1731 5.20802 18.6451 5.15558 18.9685 5.41433L18.9702 5.41569L18.9723 5.41738L18.9777 5.42177L18.9932 5.43457C19.0056 5.4449 19.022 5.45881 19.042 5.47632C19.0822 5.51133 19.137 5.56077 19.2036 5.62466C19.3367 5.75235 19.5172 5.93834 19.7213 6.18286C20.1289 6.67138 20.6337 7.39799 21.0381 8.36375C21.4464 9.33879 21.75 10.5525 21.75 12C21.75 13.4475 21.4464 14.6612 21.0381 15.6362C20.6337 16.602 20.1289 17.3286 19.7213 17.8171C19.5172 18.0616 19.3367 18.2476 19.2036 18.3753C19.137 18.4392 19.0822 18.4886 19.042 18.5236C19.022 18.5412 19.0056 18.5551 18.9932 18.5654L18.9777 18.5782L18.9723 18.5826L18.9693 18.585C18.9693 18.585 18.9684 18.5855 18.5 18L18.9685 18.5856C18.6451 18.8444 18.1731 18.792 17.9143 18.4685C17.6563 18.1459 17.7078 17.6756 18.0289 17.4164L18.032 17.4138C18.0362 17.4103 18.0443 17.4035 18.0559 17.3934C18.0791 17.3731 18.1164 17.3396 18.1651 17.293C18.2624 17.1995 18.4045 17.0539 18.5695 16.8561C18.8999 16.4602 19.3182 15.8601 19.6545 15.0569C19.9925 14.2497 20.25 13.2324 20.25 12C20.25 10.7676 19.9925 9.75023 19.6545 8.94311C19.3182 8.13991 18.8999 7.53979 18.5695 7.14384C18.4045 6.94612 18.2624 6.80043 18.1651 6.707C18.1164 6.66032 18.0791 6.62684 18.0559 6.60657C18.0443 6.59644 18.0362 6.58963 18.032 6.58613L18.0289 6.58354C17.7078 6.32434 17.6563 5.85404 17.9143 5.53146Z" fill="#282930"/>
<path fill-rule="evenodd" clip-rule="evenodd" d="M12.934 5.32918C12.849 4.36495 11.7328 3.91104 10.9964 4.54141L8.09822 7.02218C7.52018 7.51696 6.78606 7.78952 6.02609 7.78952H5.45287C4.52054 7.78952 3.75 8.55649 3.75 9.52087V14.4836C3.75 15.4479 4.52054 16.2149 5.45287 16.2149H6.02609C6.78606 16.2149 7.52018 16.4875 8.09822 16.9822L10.9911 19.4585C11.728 20.0892 12.846 19.6346 12.9306 18.6685C13.3553 13.8232 13.3565 10.1189 12.934 5.32918ZM10.021 3.40187C11.6751 1.98594 14.2349 3.00622 14.4282 5.19738C14.8585 10.0756 14.8571 13.8678 14.4249 18.7994C14.2328 20.9917 11.6715 22.0154 10.0157 20.598L7.1228 18.1218C6.81507 17.8584 6.42643 17.7149 6.02609 17.7149H5.45287C3.67584 17.7149 2.25 16.26 2.25 14.4836V9.52087C2.25 7.74443 3.67584 6.28952 5.45287 6.28952H6.02609C6.42643 6.28952 6.81507 6.14604 7.1228 5.88263L10.021 3.40187Z" fill="#282930"/>
</svg>
