<svg width="25" height="24" viewBox="0 0 25 24" fill="none" xmlns="http://www.w3.org/2000/svg">
<g clip-path="url(#clip0_24585_2731)">
<path d="M22.9904 11.926C22.9904 11.0874 22.9223 10.4754 22.775 9.84082H13.1991V13.6258H18.82C18.7067 14.5664 18.0947 15.983 16.7348 16.9349L16.7158 17.0616L19.7435 19.4071L19.9533 19.4281C21.8797 17.6489 22.9904 15.0311 22.9904 11.926Z" fill="#4285F4"/>
<path d="M13.1993 21.8983C15.9531 21.8983 18.2649 20.9917 19.9535 19.4279L16.735 16.9347C15.8738 17.5353 14.7178 17.9546 13.1993 17.9546C10.5022 17.9546 8.21306 16.1754 7.39704 13.7163L7.27744 13.7265L4.12915 16.1629L4.08798 16.2774C5.76517 19.6091 9.21025 21.8983 13.1993 21.8983Z" fill="#34A853"/>
<path d="M7.39689 13.7164C7.18158 13.0818 7.05697 12.4018 7.05697 11.6993C7.05697 10.9966 7.18158 10.3167 7.38556 9.68207L7.37986 9.54691L4.19213 7.07129L4.08783 7.1209C3.39658 8.50348 2.99994 10.0561 2.99994 11.6993C2.99994 13.3425 3.39658 14.895 4.08783 16.2775L7.39689 13.7164Z" fill="#FBBC05"/>
<path d="M13.1993 5.44367C15.1145 5.44367 16.4063 6.27094 17.143 6.96227L20.0214 4.1518C18.2536 2.50859 15.9531 1.5 13.1993 1.5C9.21025 1.5 5.76517 3.78914 4.08798 7.12086L7.38572 9.68203C8.21306 7.22289 10.5022 5.44367 13.1993 5.44367Z" fill="#EB4335"/>
</g>
<defs>
<clipPath id="clip0_24585_2731">
<rect width="20" height="20.4688" fill="white" transform="translate(3.00009 1.5)"/>
</clipPath>
</defs>
</svg>
