<svg width="20" height="20" viewBox="0 0 20 20" fill="none" xmlns="http://www.w3.org/2000/svg">
<path d="M17 1.875C17.6213 1.875 18.125 2.37868 18.125 3V17C18.125 17.6213 17.6213 18.125 17 18.125H3C2.37868 18.125 1.875 17.6213 1.875 17V3C1.875 2.37868 2.37868 1.875 3 1.875H17ZM3.125 8.75V16.875H7.5V8.75H3.125ZM8.75 8.75V16.875H16.875V8.75H8.75ZM3.125 7.5H16.875V3.125H3.125V7.5Z" fill="currentColor"/>
<path d="M17 1.875V1.725V1.875ZM18.125 3H18.275H18.125ZM18.125 17H18.275H18.125ZM17 18.125V18.275V18.125ZM1.875 17H1.725H1.875ZM3 1.875V1.725V1.875ZM3.125 8.75V8.6H2.975V8.75H3.125ZM3.125 16.875H2.975V17.025H3.125V16.875ZM7.5 16.875V17.025H7.65V16.875H7.5ZM7.5 8.75H7.65V8.6H7.5V8.75ZM8.75 8.75V8.6H8.6V8.75H8.75ZM8.75 16.875H8.6V17.025H8.75V16.875ZM16.875 16.875V17.025H17.025V16.875H16.875ZM16.875 8.75H17.025V8.6H16.875V8.75ZM3.125 7.5H2.975V7.65H3.125V7.5ZM16.875 7.5V7.65H17.025V7.5H16.875ZM16.875 3.125H17.025V2.975H16.875V3.125ZM3.125 3.125V2.975H2.975V3.125H3.125ZM17 1.875V2.025C17.5385 2.025 17.975 2.46152 17.975 3H18.125H18.275C18.275 2.29584 17.7042 1.725 17 1.725V1.875ZM18.125 3H17.975V17H18.125H18.275V3H18.125ZM18.125 17H17.975C17.975 17.5385 17.5385 17.975 17 17.975V18.125V18.275C17.7042 18.275 18.275 17.7042 18.275 17H18.125ZM17 18.125V17.975H3V18.125V18.275H17V18.125ZM3 18.125V17.975C2.46152 17.975 2.025 17.5385 2.025 17H1.875H1.725C1.725 17.7042 2.29584 18.275 3 18.275V18.125ZM1.875 17H2.025V3H1.875H1.725V17H1.875ZM1.875 3H2.025C2.025 2.46152 2.46152 2.025 3 2.025V1.875V1.725C2.29584 1.725 1.725 2.29584 1.725 3H1.875ZM3 1.875V2.025H17V1.875V1.725H3V1.875ZM3.125 8.75H2.975V16.875H3.125H3.275V8.75H3.125ZM3.125 16.875V17.025H7.5V16.875V16.725H3.125V16.875ZM7.5 16.875H7.65V8.75H7.5H7.35V16.875H7.5ZM7.5 8.75V8.6H3.125V8.75V8.9H7.5V8.75ZM8.75 8.75H8.6V16.875H8.75H8.9V8.75H8.75ZM8.75 16.875V17.025H16.875V16.875V16.725H8.75V16.875ZM16.875 16.875H17.025V8.75H16.875H16.725V16.875H16.875ZM16.875 8.75V8.6H8.75V8.75V8.9H16.875V8.75ZM3.125 7.5V7.65H16.875V7.5V7.35H3.125V7.5ZM16.875 7.5H17.025V3.125H16.875H16.725V7.5H16.875ZM16.875 3.125V2.975H3.125V3.125V3.275H16.875V3.125ZM3.125 3.125H2.975V7.5H3.125H3.275V3.125H3.125Z" fill="currentColor"/>
</svg>
