<svg width="20" height="20" viewBox="0 0 20 20" fill="none" xmlns="http://www.w3.org/2000/svg">
<path fill-rule="evenodd" clip-rule="evenodd" d="M3.125 4.20018C3.125 2.42347 4.63732 1.04175 6.42857 1.04175H13.5714C15.3627 1.04175 16.875 2.42348 16.875 4.20018V18.1219C16.875 18.8761 16.0224 19.1658 15.5161 18.7896L10 14.6903L4.48391 18.7896C3.9776 19.1658 3.125 18.8761 3.125 18.1219V4.20018ZM10.097 14.6183V14.6183ZM6.42857 2.29175C5.26115 2.29175 4.375 3.17853 4.375 4.20018V17.3131L9.35139 13.615C9.73459 13.3302 10.2654 13.3302 10.6486 13.615L15.625 17.3131V4.20018C15.625 3.17853 14.7388 2.29175 13.5714 2.29175H6.42857ZM7.29167 5.00008C7.29167 4.6549 7.57149 4.37508 7.91667 4.37508H12.0833C12.4285 4.37508 12.7083 4.6549 12.7083 5.00008C12.7083 5.34526 12.4285 5.62508 12.0833 5.62508H7.91667C7.57149 5.62508 7.29167 5.34526 7.29167 5.00008Z" fill="#7B7B7B" stroke="#7B7B7B" stroke-width="0.2" stroke-linecap="round"/>
</svg>
