<svg width="24" height="24" viewBox="0 0 24 24" fill="none" xmlns="http://www.w3.org/2000/svg">
<path d="M20.3162 7.6922C20.4862 7.3146 20.9298 7.14642 21.3074 7.31622C21.685 7.48613 21.854 7.9298 21.6844 8.30743C20.8179 10.233 19.5592 11.7257 18.0867 12.7879L20.1063 15.5584C20.35 15.8931 20.2767 16.3623 19.9422 16.6063C19.6075 16.8502 19.1383 16.776 18.8943 16.4412L16.8055 13.577C15.531 14.2395 14.1491 14.6212 12.7498 14.7215V17.4998C12.7498 17.914 12.414 18.2498 11.9998 18.2498C11.5857 18.2497 11.2498 17.914 11.2498 17.4998V14.7215C9.85027 14.6211 8.46779 14.2397 7.19318 13.577L5.10626 16.4412C4.86235 16.7759 4.39314 16.8501 4.05841 16.6063C3.72367 16.3623 3.65038 15.8932 3.89435 15.5584L5.9129 12.7879C4.44049 11.7257 3.18268 10.2329 2.31622 8.30743C2.14642 7.92978 2.3146 7.4862 2.6922 7.31622C3.06993 7.14624 3.51441 7.31447 3.68439 7.6922C7.01911 15.1024 16.9816 15.1025 20.3162 7.6922Z" fill="#292927"/>
</svg>
