<svg width="24" height="24" viewBox="0 0 24 24" fill="none" xmlns="http://www.w3.org/2000/svg">
<path fill-rule="evenodd" clip-rule="evenodd" d="M12 5.25C6.98545 5.25 3.50781 8.52807 1.97003 10.328L1.93924 10.364C1.69042 10.6548 1.46158 10.9222 1.32715 11.3806C1.26785 11.5827 1.25 11.8129 1.25 12C1.25 12.1871 1.26785 12.4173 1.32715 12.6194C1.46158 13.0778 1.69042 13.3452 1.93924 13.636L1.97003 13.672C3.50781 15.4719 6.98545 18.75 12 18.75C17.0146 18.75 20.4922 15.4719 22.03 13.672L22.0608 13.636C22.3096 13.3452 22.5384 13.0778 22.6729 12.6194C22.7321 12.4173 22.75 12.1871 22.75 12C22.75 11.8129 22.7321 11.5827 22.6729 11.3806C22.5384 10.9222 22.3096 10.6548 22.0608 10.364L22.03 10.328C20.4922 8.52807 17.0146 5.25 12 5.25ZM12 6.75C7.65653 6.75 4.56029 9.6054 3.1105 11.3024C2.83165 11.6288 2.80417 11.6743 2.76653 11.8027C2.76592 11.8052 2.76131 11.8244 2.75708 11.8623C2.75268 11.9018 2.75 11.9493 2.75 12C2.75 12.0507 2.75268 12.0982 2.75708 12.1377C2.76131 12.1756 2.76587 12.1946 2.76647 12.1971C2.80412 12.3254 2.83165 12.3712 3.1105 12.6976C4.56029 14.3946 7.65653 17.25 12 17.25C16.3435 17.25 19.4397 14.3946 20.8895 12.6976C21.1683 12.3713 21.1959 12.3254 21.2335 12.1971C21.2341 12.1945 21.2387 12.1755 21.2429 12.1377C21.2473 12.0982 21.25 12.0507 21.25 12C21.25 11.9493 21.2473 11.9018 21.2429 11.8623C21.2387 11.8245 21.2341 11.8052 21.2335 11.8026C21.1958 11.6743 21.1683 11.6287 20.8895 11.3024C19.4397 9.6054 16.3435 6.75 12 6.75Z" fill="#282930"/>
<path fill-rule="evenodd" clip-rule="evenodd" d="M12 9.75C10.7574 9.75 9.75 10.7574 9.75 12C9.75 13.2426 10.7574 14.25 12 14.25C13.2426 14.25 14.25 13.2426 14.25 12C14.25 10.7574 13.2426 9.75 12 9.75ZM8.25 12C8.25 9.92893 9.92893 8.25 12 8.25C14.0711 8.25 15.75 9.92893 15.75 12C15.75 14.0711 14.0711 15.75 12 15.75C9.92893 15.75 8.25 14.0711 8.25 12Z" fill="#282930"/>
</svg>
