<svg width="20" height="20" viewBox="0 0 20 20" fill="none" xmlns="http://www.w3.org/2000/svg">
<path d="M15 1.875C16.7259 1.875 18.125 3.27411 18.125 5C18.125 5.93362 17.7126 6.7682 17.0635 7.34082C18.677 8.11187 19.792 9.75943 19.792 11.667V12.083C19.792 12.4281 19.512 12.7078 19.167 12.708C18.8218 12.708 18.542 12.4282 18.542 12.083V11.667C18.542 9.71098 16.956 8.125 15 8.125C13.0972 8.125 11.545 9.62552 11.4619 11.5078C12.4953 12.6527 13.1249 14.1692 13.125 15.833V16.667C13.1248 17.012 12.8451 17.292 12.5 17.292C12.1549 17.292 11.8752 17.012 11.875 16.667V15.833C11.8748 12.9568 9.54322 10.6252 6.66699 10.625C3.79062 10.625 1.45818 12.9567 1.45801 15.833V16.667C1.45783 17.012 1.17808 17.292 0.833008 17.292C0.488088 17.2918 0.208184 17.0119 0.208008 16.667V15.833C0.208142 13.1072 1.89773 10.7768 4.28613 9.8291C3.32802 9.10674 2.70811 7.95932 2.70801 6.66699C2.70801 4.48087 4.48087 2.70801 6.66699 2.70801C8.85297 2.70818 10.625 4.48097 10.625 6.66699C10.6249 7.95969 10.0045 9.10678 9.0459 9.8291C9.50777 10.0123 9.94328 10.2469 10.3457 10.5264C10.6896 9.11804 11.6548 7.95312 12.9355 7.34082C12.2868 6.76821 11.875 5.93336 11.875 5C11.875 3.27411 13.2741 1.875 15 1.875ZM6.66699 3.95801C5.17122 3.95801 3.95801 5.17122 3.95801 6.66699C3.95818 8.16261 5.17133 9.375 6.66699 9.375C8.16251 9.37482 9.37482 8.16251 9.375 6.66699C9.375 5.17133 8.16261 3.95818 6.66699 3.95801ZM15 3.125C13.9645 3.125 13.125 3.96447 13.125 5C13.125 6.03553 13.9645 6.875 15 6.875C16.0355 6.875 16.875 6.03553 16.875 5C16.875 3.96447 16.0355 3.125 15 3.125Z" fill="#7B7B7B"/>
</svg>
 