<svg width="24" height="24" viewBox="0 0 24 24" fill="none" xmlns="http://www.w3.org/2000/svg">
<path fill-rule="evenodd" clip-rule="evenodd" d="M3.25 9.5C3.25 4.89879 7.21384 1.25 12 1.25C16.7862 1.25 20.75 4.89879 20.75 9.5V15.125C20.75 16.3578 19.8808 17.3428 18.75 17.6501V18C18.75 20.0711 17.0711 21.75 15 21.75H14.0816C13.8007 22.3412 13.1981 22.75 12.5 22.75H11.5C10.5335 22.75 9.75 21.9665 9.75 21C9.75 20.0335 10.5335 19.25 11.5 19.25H12.5C13.1981 19.25 13.8007 19.6588 14.0816 20.25H15C16.2426 20.25 17.25 19.2426 17.25 18V17.6501C16.1192 17.3428 15.25 16.3578 15.25 15.125V13.0417C15.25 11.5471 16.5275 10.4167 18 10.4167C18.4443 10.4167 18.8709 10.5196 19.25 10.7044V9.5C19.25 5.81694 16.0504 2.75 12 2.75C7.9496 2.75 4.75 5.81694 4.75 9.5V10.7044C5.12909 10.5196 5.55567 10.4167 6 10.4167C7.47245 10.4167 8.75 11.5471 8.75 13.0417V15.125C8.75 16.6196 7.47245 17.75 6 17.75C4.52755 17.75 3.25 16.6196 3.25 15.125V9.5ZM4.75 15.125C4.75 15.7015 5.26331 16.25 6 16.25C6.73669 16.25 7.25 15.7015 7.25 15.125V13.0417C7.25 12.4652 6.73669 11.9167 6 11.9167C5.26331 11.9167 4.75 12.4652 4.75 13.0417V15.125ZM19.25 13.0417C19.25 12.4652 18.7367 11.9167 18 11.9167C17.2633 11.9167 16.75 12.4652 16.75 13.0417V15.125C16.75 15.7015 17.2633 16.25 18 16.25C18.7367 16.25 19.25 15.7015 19.25 15.125V13.0417ZM11.5 20.75C11.3619 20.75 11.25 20.8619 11.25 21C11.25 21.1381 11.3619 21.25 11.5 21.25H12.5C12.6381 21.25 12.75 21.1381 12.75 21C12.75 20.8619 12.6381 20.75 12.5 20.75H11.5Z" fill="#282930"/>
</svg>
