<svg width="24" height="24" viewBox="0 0 24 24" fill="none" xmlns="http://www.w3.org/2000/svg">
<path fill-rule="evenodd" clip-rule="evenodd" d="M7.5 3.75C4.8597 3.75 2.75 5.83542 2.75 8.37051C2.75 9.29093 3.19686 10.4343 3.99881 11.7096C4.78914 12.9664 5.86793 14.2637 7.00425 15.4717C8.98592 17.5783 11.0892 19.3575 12 20.1021C12.9108 19.3575 15.0141 17.5783 16.9958 15.4717C18.1321 14.2637 19.2109 12.9664 20.0012 11.7096C20.8031 10.4343 21.25 9.29093 21.25 8.37051C21.25 5.83542 19.1403 3.75 16.5 3.75C14.997 3.75 13.6616 4.42781 12.7923 5.48219C12.3838 5.97758 11.6162 5.97758 11.2077 5.48219C10.3384 4.42781 9.00301 3.75 7.5 3.75ZM1.25 8.37051C1.25 4.9735 4.06517 2.25 7.5 2.25C9.26454 2.25 10.862 2.9671 12 4.12298C13.138 2.9671 14.7355 2.25 16.5 2.25C19.9348 2.25 22.75 4.9735 22.75 8.37051C22.75 9.71798 22.1213 11.1559 21.271 12.5081C20.4091 13.8788 19.2589 15.2551 18.0883 16.4994C15.7457 18.9898 13.2513 21.0253 12.618 21.5316C12.2538 21.8228 11.7463 21.8228 11.382 21.5316C10.7487 21.0253 8.25428 18.9898 5.91167 16.4994C4.74114 15.2551 3.59095 13.8788 2.72901 12.5081C1.87869 11.1559 1.25 9.71798 1.25 8.37051Z" fill="#282930"/>
</svg>
