<svg width="20" height="20" viewBox="0 0 20 20" fill="none" xmlns="http://www.w3.org/2000/svg">
<path d="M17 5.20801C17.6212 5.20801 18.1248 5.71184 18.125 6.33301V17C18.125 17.6213 17.6213 18.125 17 18.125H6.33301C5.71184 18.1248 5.20801 17.6212 5.20801 17V6.33301C5.20818 5.71194 5.71195 5.20818 6.33301 5.20801H17ZM6.45801 16.875H16.875V6.45801H6.45801V16.875ZM15 2.70801C15.3451 2.70801 15.6248 2.98798 15.625 3.33301C15.625 3.67819 15.3452 3.95801 15 3.95801H3.95801V15C3.95801 15.3452 3.67819 15.625 3.33301 15.625C2.98798 15.6248 2.70801 15.3451 2.70801 15V3.83301C2.70818 3.21194 3.21195 2.70818 3.83301 2.70801H15ZM9.375 10.0498C9.3752 9.17551 10.3293 8.6351 11.0791 9.08496L13.7734 10.7021C14.5017 11.1391 14.5017 12.1949 13.7734 12.6318L11.0791 14.249C10.3293 14.6989 9.37521 14.1585 9.375 13.2842V10.0498ZM10.625 13.0635L12.9521 11.667L10.625 10.2705V13.0635Z" fill="#7B7B7B"/>
</svg>
