<svg width="18" height="18" viewBox="0 0 18 18" fill="none" xmlns="http://www.w3.org/2000/svg">
<path d="M16.0498 8.4375C16.609 8.4375 17.0625 8.89101 17.0625 9.4502V15.2998C17.0625 15.859 16.609 16.3125 16.0498 16.3125H10.2002C9.64101 16.3125 9.1875 15.859 9.1875 15.2998V9.4502C9.1875 8.89101 9.64101 8.4375 10.2002 8.4375H16.0498ZM10.3125 15.1875H15.9375V9.5625H10.3125V15.1875ZM6.58398 1.6875C6.82552 1.68761 7.05879 1.77445 7.24219 1.93164L9.58301 3.9375H16.0498C16.609 3.9375 17.0625 4.39101 17.0625 4.9502V6.75C17.0625 7.06066 16.8107 7.3125 16.5 7.3125C16.1893 7.3125 15.9375 7.06066 15.9375 6.75V5.0625H9.54102C9.29948 5.06239 9.06621 4.97555 8.88281 4.81836L6.54199 2.8125H2.0625V6.9375H7.5C7.81066 6.9375 8.0625 7.18934 8.0625 7.5C8.0625 7.81066 7.81066 8.0625 7.5 8.0625H2.0625V13.6875H7.5C7.81066 13.6875 8.0625 13.9393 8.0625 14.25C8.0625 14.5607 7.81066 14.8125 7.5 14.8125H1.9502C1.39101 14.8125 0.9375 14.359 0.9375 13.7998V2.7002C0.9375 2.14101 1.39101 1.6875 1.9502 1.6875H6.58398ZM11.4375 11.3115C11.4378 10.5167 12.3121 10.0321 12.9863 10.4531L14.6875 11.5166C15.322 11.9132 15.3219 12.8368 14.6875 13.2334L12.9863 14.2969C12.3121 14.718 11.4377 14.2334 11.4375 13.4385V11.3115ZM12.5625 13.2354L13.9385 12.375L12.5625 11.5146V13.2354Z" fill="#7B7B7B"/>
<path d="M10.3125 15.1875H10.2625C10.2625 15.2151 10.2849 15.2375 10.3125 15.2375V15.1875ZM15.9375 15.1875V15.2375C15.9651 15.2375 15.9875 15.2151 15.9875 15.1875H15.9375ZM15.9375 9.5625H15.9875C15.9875 9.53489 15.9651 9.5125 15.9375 9.5125V9.5625ZM10.3125 9.5625V9.5125C10.2849 9.5125 10.2625 9.53489 10.2625 9.5625H10.3125ZM6.58398 1.6875L6.58401 1.6375H6.58398V1.6875ZM7.24219 1.93164L7.20965 1.9696L7.20965 1.96961L7.24219 1.93164ZM9.58301 3.9375L9.55047 3.97547C9.55954 3.98323 9.57107 3.9875 9.58301 3.9875V3.9375ZM16.5 7.3125V7.3625V7.3125ZM15.9375 5.0625H15.9875C15.9875 5.03489 15.9651 5.0125 15.9375 5.0125V5.0625ZM9.54102 5.0625L9.54099 5.1125H9.54102V5.0625ZM8.88281 4.81836L8.91535 4.7804L8.91535 4.78039L8.88281 4.81836ZM6.54199 2.8125L6.57453 2.77453C6.56546 2.76677 6.55393 2.7625 6.54199 2.7625V2.8125ZM2.0625 2.8125V2.7625C2.03489 2.7625 2.0125 2.78489 2.0125 2.8125H2.0625ZM2.0625 6.9375H2.0125C2.0125 6.96511 2.03489 6.9875 2.0625 6.9875V6.9375ZM7.5 6.9375V6.8875V6.9375ZM7.5 8.0625V8.1125V8.0625ZM2.0625 8.0625V8.0125C2.03489 8.0125 2.0125 8.03489 2.0125 8.0625H2.0625ZM2.0625 13.6875H2.0125C2.0125 13.7151 2.03489 13.7375 2.0625 13.7375V13.6875ZM7.5 13.6875V13.6375V13.6875ZM7.5 14.8125V14.8625V14.8125ZM11.4375 11.3115L11.3875 11.3115V11.3115H11.4375ZM12.9863 10.4531L13.0128 10.4107L13.0128 10.4107L12.9863 10.4531ZM14.6875 11.5166L14.661 11.559L14.661 11.559L14.6875 11.5166ZM14.6875 13.2334L14.661 13.191H14.661L14.6875 13.2334ZM12.9863 14.2969L13.0128 14.3393L13.0128 14.3393L12.9863 14.2969ZM11.4375 13.4385H11.3875V13.4385L11.4375 13.4385ZM12.5625 13.2354H12.5125C12.5125 13.2535 12.5224 13.2703 12.5383 13.2791C12.5542 13.2879 12.5736 13.2874 12.589 13.2777L12.5625 13.2354ZM13.9385 12.375L13.965 12.4174C13.9796 12.4083 13.9885 12.3922 13.9885 12.375C13.9885 12.3578 13.9796 12.3417 13.965 12.3326L13.9385 12.375ZM12.5625 11.5146L12.589 11.4723C12.5736 11.4626 12.5542 11.4621 12.5383 11.4709C12.5224 11.4797 12.5125 11.4965 12.5125 11.5146H12.5625ZM16.0498 8.4375V8.4875C16.5814 8.4875 17.0125 8.91862 17.0125 9.4502H17.0625H17.1125C17.1125 8.86339 16.6366 8.3875 16.0498 8.3875V8.4375ZM17.0625 9.4502H17.0125V15.2998H17.0625H17.1125V9.4502H17.0625ZM17.0625 15.2998H17.0125C17.0125 15.8314 16.5814 16.2625 16.0498 16.2625V16.3125V16.3625C16.6366 16.3625 17.1125 15.8866 17.1125 15.2998H17.0625ZM16.0498 16.3125V16.2625H10.2002V16.3125V16.3625H16.0498V16.3125ZM10.2002 16.3125V16.2625C9.66862 16.2625 9.2375 15.8314 9.2375 15.2998H9.1875H9.1375C9.1375 15.8866 9.61339 16.3625 10.2002 16.3625V16.3125ZM9.1875 15.2998H9.2375V9.4502H9.1875H9.1375V15.2998H9.1875ZM9.1875 9.4502H9.2375C9.2375 8.91862 9.66862 8.4875 10.2002 8.4875V8.4375V8.3875C9.61339 8.3875 9.1375 8.86339 9.1375 9.4502H9.1875ZM10.2002 8.4375V8.4875H16.0498V8.4375V8.3875H10.2002V8.4375ZM10.3125 15.1875V15.2375H15.9375V15.1875V15.1375H10.3125V15.1875ZM15.9375 15.1875H15.9875V9.5625H15.9375H15.8875V15.1875H15.9375ZM15.9375 9.5625V9.5125H10.3125V9.5625V9.6125H15.9375V9.5625ZM10.3125 9.5625H10.2625V15.1875H10.3125H10.3625V9.5625H10.3125ZM6.58398 1.6875L6.58396 1.7375C6.8135 1.7376 7.03526 1.82013 7.20965 1.9696L7.24219 1.93164L7.27473 1.89368C7.08233 1.72876 6.83754 1.63761 6.58401 1.6375L6.58398 1.6875ZM7.24219 1.93164L7.20965 1.96961L9.55047 3.97547L9.58301 3.9375L9.61554 3.89953L7.27472 1.89367L7.24219 1.93164ZM9.58301 3.9375V3.9875H16.0498V3.9375V3.8875H9.58301V3.9375ZM16.0498 3.9375V3.9875C16.5814 3.9875 17.0125 4.41862 17.0125 4.9502H17.0625H17.1125C17.1125 4.36339 16.6366 3.8875 16.0498 3.8875V3.9375ZM17.0625 4.9502H17.0125V6.75H17.0625H17.1125V4.9502H17.0625ZM17.0625 6.75H17.0125C17.0125 7.03305 16.783 7.2625 16.5 7.2625V7.3125V7.3625C16.8383 7.3625 17.1125 7.08827 17.1125 6.75H17.0625ZM16.5 7.3125V7.2625C16.217 7.2625 15.9875 7.03305 15.9875 6.75H15.9375H15.8875C15.8875 7.08827 16.1617 7.3625 16.5 7.3625V7.3125ZM15.9375 6.75H15.9875V5.0625H15.9375H15.8875V6.75H15.9375ZM15.9375 5.0625V5.0125H9.54102V5.0625V5.1125H15.9375V5.0625ZM9.54102 5.0625L9.54104 5.0125C9.3115 5.0124 9.08974 4.92987 8.91535 4.7804L8.88281 4.81836L8.85027 4.85632C9.04267 5.02124 9.28746 5.11239 9.54099 5.1125L9.54102 5.0625ZM8.88281 4.81836L8.91535 4.78039L6.57453 2.77453L6.54199 2.8125L6.50946 2.85047L8.85028 4.85633L8.88281 4.81836ZM6.54199 2.8125V2.7625H2.0625V2.8125V2.8625H6.54199V2.8125ZM2.0625 2.8125H2.0125V6.9375H2.0625H2.1125V2.8125H2.0625ZM2.0625 6.9375V6.9875H7.5V6.9375V6.8875H2.0625V6.9375ZM7.5 6.9375V6.9875C7.78305 6.9875 8.0125 7.21695 8.0125 7.5H8.0625H8.1125C8.1125 7.16173 7.83827 6.8875 7.5 6.8875V6.9375ZM8.0625 7.5H8.0125C8.0125 7.78305 7.78305 8.0125 7.5 8.0125V8.0625V8.1125C7.83827 8.1125 8.1125 7.83827 8.1125 7.5H8.0625ZM7.5 8.0625V8.0125H2.0625V8.0625V8.1125H7.5V8.0625ZM2.0625 8.0625H2.0125V13.6875H2.0625H2.1125V8.0625H2.0625ZM2.0625 13.6875V13.7375H7.5V13.6875V13.6375H2.0625V13.6875ZM7.5 13.6875V13.7375C7.78305 13.7375 8.0125 13.967 8.0125 14.25H8.0625H8.1125C8.1125 13.9117 7.83827 13.6375 7.5 13.6375V13.6875ZM8.0625 14.25H8.0125C8.0125 14.533 7.78305 14.7625 7.5 14.7625V14.8125V14.8625C7.83827 14.8625 8.1125 14.5883 8.1125 14.25H8.0625ZM7.5 14.8125V14.7625H1.9502V14.8125V14.8625H7.5V14.8125ZM1.9502 14.8125V14.7625C1.41862 14.7625 0.9875 14.3314 0.9875 13.7998H0.9375H0.8875C0.8875 14.3866 1.36339 14.8625 1.9502 14.8625V14.8125ZM0.9375 13.7998H0.9875V2.7002H0.9375H0.8875V13.7998H0.9375ZM0.9375 2.7002H0.9875C0.9875 2.16862 1.41862 1.7375 1.9502 1.7375V1.6875V1.6375C1.36339 1.6375 0.8875 2.11339 0.8875 2.7002H0.9375ZM1.9502 1.6875V1.7375H6.58398V1.6875V1.6375H1.9502V1.6875ZM11.4375 11.3115L11.4875 11.3115C11.4878 10.5559 12.3189 10.0953 12.9598 10.4955L12.9863 10.4531L13.0128 10.4107C12.3053 9.96887 11.3878 10.4774 11.3875 11.3115L11.4375 11.3115ZM12.9863 10.4531L12.9598 10.4955L14.661 11.559L14.6875 11.5166L14.714 11.4742L13.0128 10.4107L12.9863 10.4531ZM14.6875 11.5166L14.661 11.559C15.2641 11.936 15.2641 12.814 14.661 13.191L14.6875 13.2334L14.714 13.2758C15.3798 12.8596 15.3798 11.8903 14.714 11.4742L14.6875 11.5166ZM14.6875 13.2334L14.661 13.191L12.9598 14.2545L12.9863 14.2969L13.0128 14.3393L14.714 13.2758L14.6875 13.2334ZM12.9863 14.2969L12.9598 14.2545C12.3189 14.6548 11.4877 14.1942 11.4875 13.4385L11.4375 13.4385L11.3875 13.4385C11.3878 14.2727 12.3053 14.7812 13.0128 14.3393L12.9863 14.2969ZM11.4375 13.4385H11.4875V11.3115H11.4375H11.3875V13.4385H11.4375ZM12.5625 13.2354L12.589 13.2777L13.965 12.4174L13.9385 12.375L13.912 12.3326L12.536 13.193L12.5625 13.2354ZM13.9385 12.375L13.965 12.3326L12.589 11.4723L12.5625 11.5146L12.536 11.557L13.912 12.4174L13.9385 12.375ZM12.5625 11.5146H12.5125V13.2354H12.5625H12.6125V11.5146H12.5625Z" fill="#7B7B7B"/>
</svg>
