<svg width="20" height="20" viewBox="0 0 20 20" fill="none" xmlns="http://www.w3.org/2000/svg">
<path d="M15.833 12.708C16.1781 12.708 16.4578 12.988 16.458 13.333V15.208H18.333C18.6781 15.208 18.9578 15.488 18.958 15.833C18.958 16.1782 18.6782 16.458 18.333 16.458H16.458V18.333C16.458 18.6782 16.1782 18.958 15.833 18.958C15.488 18.9578 15.208 18.6781 15.208 18.333V16.458H13.333C12.988 16.4578 12.708 16.1781 12.708 15.833C12.7082 15.4881 12.9881 15.2082 13.333 15.208H15.208V13.333C15.2082 12.9881 15.4881 12.7082 15.833 12.708ZM17 1.875C17.6213 1.875 18.125 2.37868 18.125 3V10.833C18.125 11.1782 17.8452 11.458 17.5 11.458C17.1548 11.458 16.875 11.1782 16.875 10.833V3.125H3.125V16.875H10.833C11.1782 16.875 11.458 17.1548 11.458 17.5C11.458 17.8452 11.1782 18.125 10.833 18.125H3C2.37868 18.125 1.875 17.6213 1.875 17V3C1.875 2.37868 2.37868 1.875 3 1.875H17ZM6.875 7.52832C6.875 6.66452 7.8086 6.12222 8.55859 6.55078L12.8838 9.02344C13.6393 9.45541 13.6394 10.5447 12.8838 10.9766L8.55859 13.4482C7.80865 13.8768 6.87512 13.3354 6.875 12.4717V7.52832ZM8.125 12.2559L12.0732 10L8.125 7.74316V12.2559Z" fill="#7B7B7B"/>
<path d="M15.833 12.708V12.608H15.833L15.833 12.708ZM16.458 13.333H16.558V13.333L16.458 13.333ZM16.458 15.208H16.358C16.358 15.2632 16.4028 15.308 16.458 15.308V15.208ZM18.958 15.833H19.058V15.833L18.958 15.833ZM16.458 16.458V16.358C16.4028 16.358 16.358 16.4028 16.358 16.458H16.458ZM15.833 18.958L15.833 19.058H15.833V18.958ZM15.208 16.458H15.308C15.308 16.4028 15.2632 16.358 15.208 16.358V16.458ZM13.333 16.458L13.333 16.558H13.333V16.458ZM12.708 15.833L12.608 15.833V15.833H12.708ZM13.333 15.208V15.108H13.333L13.333 15.208ZM15.208 15.208V15.308C15.2632 15.308 15.308 15.2632 15.308 15.208H15.208ZM15.208 13.333L15.108 13.333V13.333H15.208ZM18.125 3H18.225H18.125ZM17.5 11.458V11.558V11.458ZM16.875 3.125H16.975C16.975 3.06977 16.9302 3.025 16.875 3.025V3.125ZM3.125 3.125V3.025C3.06977 3.025 3.025 3.06977 3.025 3.125H3.125ZM3.125 16.875H3.025C3.025 16.9302 3.06977 16.975 3.125 16.975V16.875ZM11.458 17.5H11.558H11.458ZM3 18.125V18.225V18.125ZM1.875 17H1.775H1.875ZM1.875 3H1.775H1.875ZM3 1.875V1.775V1.875ZM8.55859 6.55078L8.60822 6.46397L8.60821 6.46396L8.55859 6.55078ZM12.8838 9.02344L12.9334 8.93663L12.9334 8.93662L12.8838 9.02344ZM12.8838 10.9766L12.9334 11.0634L12.9334 11.0634L12.8838 10.9766ZM8.55859 13.4482L8.60821 13.5351L8.60821 13.5351L8.55859 13.4482ZM6.875 12.4717H6.775V12.4717L6.875 12.4717ZM8.125 12.2559H8.025C8.025 12.2915 8.04397 12.3245 8.0748 12.3423C8.10564 12.3602 8.14366 12.3604 8.17461 12.3427L8.125 12.2559ZM12.0732 10L12.1229 10.0868C12.154 10.069 12.1732 10.0359 12.1732 10C12.1732 9.96412 12.154 9.93099 12.1229 9.91318L12.0732 10ZM8.125 7.74316L8.17463 7.65635C8.14368 7.63866 8.10565 7.63878 8.07481 7.65667C8.04398 7.67456 8.025 7.70751 8.025 7.74316H8.125ZM15.833 12.708V12.808C16.1228 12.808 16.3579 13.0432 16.358 13.3331L16.458 13.333L16.558 13.333C16.5578 12.9328 16.2334 12.608 15.833 12.608V12.708ZM16.458 13.333H16.358V15.208H16.458H16.558V13.333H16.458ZM16.458 15.208V15.308H18.333V15.208V15.108H16.458V15.208ZM18.333 15.208V15.308C18.6228 15.308 18.8579 15.5432 18.858 15.8331L18.958 15.833L19.058 15.833C19.0578 15.4328 18.7334 15.108 18.333 15.108V15.208ZM18.958 15.833H18.858C18.858 16.123 18.623 16.358 18.333 16.358V16.458V16.558C18.7334 16.558 19.058 16.2334 19.058 15.833H18.958ZM18.333 16.458V16.358H16.458V16.458V16.558H18.333V16.458ZM16.458 16.458H16.358V18.333H16.458H16.558V16.458H16.458ZM16.458 18.333H16.358C16.358 18.623 16.123 18.858 15.833 18.858V18.958V19.058C16.2334 19.058 16.558 18.7334 16.558 18.333H16.458ZM15.833 18.958L15.8331 18.858C15.5432 18.8579 15.308 18.6228 15.308 18.333H15.208H15.108C15.108 18.7334 15.4328 19.0578 15.833 19.058L15.833 18.958ZM15.208 18.333H15.308V16.458H15.208H15.108V18.333H15.208ZM15.208 16.458V16.358H13.333V16.458V16.558H15.208V16.458ZM13.333 16.458L13.3331 16.358C13.0432 16.3579 12.808 16.1228 12.808 15.833H12.708H12.608C12.608 16.2334 12.9328 16.5578 13.333 16.558L13.333 16.458ZM12.708 15.833L12.808 15.8331C12.8082 15.5433 13.0433 15.3082 13.3331 15.308L13.333 15.208L13.333 15.108C12.9328 15.1082 12.6082 15.4328 12.608 15.833L12.708 15.833ZM13.333 15.208V15.308H15.208V15.208V15.108H13.333V15.208ZM15.208 15.208H15.308V13.333H15.208H15.108V15.208H15.208ZM15.208 13.333L15.308 13.3331C15.3082 13.0433 15.5433 12.8082 15.8331 12.808L15.833 12.708L15.833 12.608C15.4328 12.6082 15.1082 12.9328 15.108 13.333L15.208 13.333ZM17 1.875V1.975C17.5661 1.975 18.025 2.43391 18.025 3H18.125H18.225C18.225 2.32345 17.6765 1.775 17 1.775V1.875ZM18.125 3H18.025V10.833H18.125H18.225V3H18.125ZM18.125 10.833H18.025C18.025 11.123 17.7899 11.358 17.5 11.358V11.458V11.558C17.9004 11.558 18.225 11.2334 18.225 10.833H18.125ZM17.5 11.458V11.358C17.2101 11.358 16.975 11.123 16.975 10.833H16.875H16.775C16.775 11.2334 17.0996 11.558 17.5 11.558V11.458ZM16.875 10.833H16.975V3.125H16.875H16.775V10.833H16.875ZM16.875 3.125V3.025H3.125V3.125V3.225H16.875V3.125ZM3.125 3.125H3.025V16.875H3.125H3.225V3.125H3.125ZM3.125 16.875V16.975H10.833V16.875V16.775H3.125V16.875ZM10.833 16.875V16.975C11.123 16.975 11.358 17.2101 11.358 17.5H11.458H11.558C11.558 17.0996 11.2334 16.775 10.833 16.775V16.875ZM11.458 17.5H11.358C11.358 17.7899 11.123 18.025 10.833 18.025V18.125V18.225C11.2334 18.225 11.558 17.9004 11.558 17.5H11.458ZM10.833 18.125V18.025H3V18.125V18.225H10.833V18.125ZM3 18.125V18.025C2.43391 18.025 1.975 17.5661 1.975 17H1.875H1.775C1.775 17.6765 2.32345 18.225 3 18.225V18.125ZM1.875 17H1.975V3H1.875H1.775V17H1.875ZM1.875 3H1.975C1.975 2.43391 2.43391 1.975 3 1.975V1.875V1.775C2.32345 1.775 1.775 2.32345 1.775 3H1.875ZM3 1.875V1.975H17V1.875V1.775H3V1.875ZM6.875 7.52832H6.975C6.975 6.74122 7.82572 6.24717 8.50898 6.63761L8.55859 6.55078L8.60821 6.46396C7.79149 5.99726 6.775 6.58782 6.775 7.52832H6.875ZM8.55859 6.55078L8.50896 6.6376L12.8342 9.11025L12.8838 9.02344L12.9334 8.93662L8.60822 6.46397L8.55859 6.55078ZM12.8838 9.02344L12.8342 9.11025C13.5225 9.50384 13.5226 10.4963 12.8342 10.8897L12.8838 10.9766L12.9334 11.0634C13.7563 10.5931 13.7561 9.40697 12.9334 8.93663L12.8838 9.02344ZM12.8838 10.9766L12.8342 10.8897L8.50898 13.3614L8.55859 13.4482L8.60821 13.5351L12.9334 11.0634L12.8838 10.9766ZM8.55859 13.4482L8.50898 13.3614C7.82566 13.7519 6.97511 13.2586 6.975 12.4717L6.875 12.4717L6.775 12.4717C6.77513 13.4122 7.79164 14.0017 8.60821 13.5351L8.55859 13.4482ZM6.875 12.4717H6.975V7.52832H6.875H6.775V12.4717H6.875ZM8.125 12.2559L8.17461 12.3427L12.1229 10.0868L12.0732 10L12.0236 9.91317L8.07539 12.169L8.125 12.2559ZM12.0732 10L12.1229 9.91318L8.17463 7.65635L8.125 7.74316L8.07537 7.82998L12.0236 10.0868L12.0732 10ZM8.125 7.74316H8.025V12.2559H8.125H8.225V7.74316H8.125Z" fill="#7B7B7B"/>
</svg>
