<svg width="20" height="20" viewBox="0 0 20 20" fill="none" xmlns="http://www.w3.org/2000/svg">
<path d="M3.125 5.41667V14.375C3.125 15.7557 4.24429 16.875 5.625 16.875H15.2083C16.1288 16.875 16.875 16.1288 16.875 15.2083V8.95833C16.875 8.03786 16.1288 7.29167 15.2083 7.29167H13.5417M3.125 5.41667C3.125 6.4522 3.96447 7.29167 5 7.29167H13.5417M3.125 5.41667C3.125 4.15101 4.15101 3.125 5.41667 3.125H12.3162C12.993 3.125 13.5417 3.67367 13.5417 4.35049V7.29167" stroke="#7B7B7B" stroke-width="1.5" stroke-linecap="square" stroke-linejoin="round"/>
<path d="M12.917 11.4165C13.285 11.4167 13.583 11.7154 13.583 12.0835C13.5828 12.4514 13.2849 12.7493 12.917 12.7495C12.5489 12.7495 12.2502 12.4515 12.25 12.0835C12.25 11.7153 12.5488 11.4165 12.917 11.4165Z" fill="#7B7B7B" stroke="#7B7B7B" stroke-width="0.5" stroke-linejoin="round"/>
</svg>
