<svg width="20" height="20" viewBox="0 0 20 20" fill="none" xmlns="http://www.w3.org/2000/svg">
<path d="M5.19543 16.0875C5.35355 15.7068 5.49902 15.3194 5.63129 14.926M12.0196 17.5013C12.2484 16.8559 12.4514 16.1982 12.6273 15.5296C12.7869 14.923 12.9242 14.3073 13.0383 13.6835M16.4077 14.377C16.721 12.6887 16.8847 10.9479 16.8847 9.16887C16.8847 5.3706 13.8056 2.2915 10.0074 2.2915C8.92813 2.2915 7.90695 2.5401 6.99796 2.98316M2.71808 12.6286C2.98732 11.5195 3.13002 10.3608 3.13002 9.16887C3.13002 7.67278 3.60774 6.28826 4.41895 5.15954M10.0077 9.16887C10.0077 11.5419 9.62315 13.8251 8.91287 15.9596C8.73011 16.5088 8.52578 17.0482 8.3009 17.5767M6.31909 12.1777C6.48325 11.1992 6.5687 10.194 6.5687 9.16887C6.5687 7.26974 8.10825 5.73019 10.0074 5.73019C11.9065 5.73019 13.4461 7.26974 13.4461 9.16887C13.4461 9.69893 13.4295 10.2251 13.3969 10.747" stroke="#7B7B7B" stroke-width="1.5" stroke-linecap="round" stroke-linejoin="round"/>
</svg>
