<svg width="20" height="20" viewBox="0 0 20 20" fill="none" xmlns="http://www.w3.org/2000/svg">
<path d="M14.5833 9.99996C14.5833 12.5313 12.5313 14.5833 9.99996 14.5833C7.46865 14.5833 5.41663 12.5313 5.41663 9.99996M17.7083 9.99996C17.7083 14.2572 14.2572 17.7083 9.99996 17.7083C5.74276 17.7083 2.29163 14.2572 2.29163 9.99996C2.29163 5.74276 5.74276 2.29163 9.99996 2.29163C14.2572 2.29163 17.7083 5.74276 17.7083 9.99996Z" stroke="#7B7B7B" stroke-width="1.5" stroke-linecap="round" stroke-linejoin="round"/>
<path d="M9.16663 7.5C9.16663 8.19036 8.60698 8.75 7.91663 8.75C7.22627 8.75 6.66663 8.19036 6.66663 7.5C6.66663 6.80964 7.22627 6.25 7.91663 6.25C8.60698 6.25 9.16663 6.80964 9.16663 7.5Z" fill="#7B7B7B"/>
<path d="M13.3333 7.5C13.3333 8.19036 12.7736 8.75 12.0833 8.75C11.3929 8.75 10.8333 8.19036 10.8333 7.5C10.8333 6.80964 11.3929 6.25 12.0833 6.25C12.7736 6.25 13.3333 6.80964 13.3333 7.5Z" fill="#7B7B7B"/>
</svg>
