<svg width="20" height="20" viewBox="0 0 20 20" fill="none" xmlns="http://www.w3.org/2000/svg">
<path fill-rule="evenodd" clip-rule="evenodd" d="M11.5253 2.13272C13.035 0.677929 15.4734 0.677929 16.983 2.13272C18.5057 3.60004 18.5057 5.98897 16.983 7.45629L8.95 15.1974C8.07414 16.0414 6.66334 16.0414 5.78748 15.1974C4.89861 14.3408 4.89861 12.9421 5.78748 12.0856L11.5253 6.5562C11.7739 6.31668 12.1696 6.32401 12.4091 6.57256C12.6486 6.82111 12.6413 7.21677 12.3927 7.45629L6.65485 12.9856C6.27615 13.3506 6.27615 13.9324 6.65485 14.2973C7.04657 14.6748 7.69091 14.6748 8.08262 14.2973L16.1156 6.5562C17.1281 5.5805 17.1281 4.0085 16.1156 3.0328C15.0901 2.04457 13.4182 2.04457 12.3927 3.0328L4.35971 10.7739C2.71343 12.3604 2.71343 14.9226 4.35971 16.509C6.019 18.108 8.71848 18.108 10.3778 16.509L16.1156 10.9797C16.3642 10.7402 16.7598 10.7475 16.9994 10.996C17.2389 11.2446 17.2316 11.6403 16.983 11.8798L11.2451 17.4091C9.10171 19.4747 5.63576 19.4747 3.49233 17.4091C1.33589 15.3311 1.33589 11.9519 3.49233 9.87382L11.5253 2.13272Z" fill="#7B7B7B"/>
</svg>
