<svg width="20" height="20" viewBox="0 0 20 20" fill="none" xmlns="http://www.w3.org/2000/svg">
<path d="M9.877 11.0426C7.11188 11.0905 5.01723 12.7547 4.15208 15.0939C3.81141 16.015 4.59862 16.8748 5.58071 16.8748H9.58335M9.877 11.0426C9.91786 11.0419 9.95887 11.0415 10 11.0415C10.2934 11.0415 10.5795 11.0596 10.8575 11.0947M9.877 11.0426C9.33525 11.052 8.81954 11.1234 8.33343 11.2498M10.8575 11.0947C11.1356 11.1298 11.4056 11.1819 11.667 11.2498M10.8575 11.0947C11.4425 11.1685 11.992 11.3175 12.5 11.5315M12.2917 15.4998L14.125 16.8748L16.875 12.2915M13.125 5.4165C13.125 7.14239 11.7259 8.5415 10 8.5415C8.27413 8.5415 6.87502 7.14239 6.87502 5.4165C6.87502 3.69061 8.27413 2.2915 10 2.2915C11.7259 2.2915 13.125 3.69061 13.125 5.4165Z" stroke="#7B7B7B" stroke-width="1.5" stroke-linecap="round" stroke-linejoin="round"/>
</svg>
