<svg width="38" height="36" viewBox="0 0 38 36" fill="none" xmlns="http://www.w3.org/2000/svg">
<g clip-path="url(#clip0_25248_8204)">
<mask id="mask0_25248_8204" style="mask-type:luminance" maskUnits="userSpaceOnUse" x="0" y="0" width="38" height="36">
<path d="M37.5434 0H0.454102V36H37.5434V0Z" fill="white"/>
</mask>
<g mask="url(#mask0_25248_8204)">
<path d="M30.9799 0H7.01758C3.39268 0 0.454102 2.95791 0.454102 6.60666V29.3933C0.454102 33.0421 3.39268 36 7.01758 36H30.9799C34.6049 36 37.5434 33.0421 37.5434 29.3933V6.60666C37.5434 2.95791 34.6049 0 30.9799 0Z" fill="#EB1000"/>
<path d="M14.7383 25.0467C14.7383 25.1934 14.6721 25.26 14.5263 25.26H11.4996C11.3804 25.26 11.334 25.1733 11.334 25.0467V9.29331C11.334 9.1533 11.3804 9.09998 11.5195 9.09998H21.2223C21.3879 9.09998 21.4276 9.14664 21.4541 9.30664L21.7256 11.9666C21.7521 12.1133 21.6793 12.1799 21.5203 12.1799H14.7383V15.9266H20.8514C20.9905 15.9266 21.0567 15.9733 21.0567 16.12V18.8133C21.0567 18.96 20.9839 19.0066 20.8646 19.0066H14.7383V25.0467Z" fill="white"/>
<path d="M23.54 13.2068C23.54 13.0668 23.6063 13.0002 23.7454 13.0002H26.7589C26.9178 13.0002 26.9642 13.0401 26.9642 13.2001V25.0267C26.9642 25.1868 26.9178 25.2534 26.739 25.2534H23.7851C23.6195 25.2534 23.54 25.1801 23.54 25.0201V13.2001V13.2068Z" fill="white"/>
<path d="M25.9925 10.3335L27.4892 10.6735C28.0788 10.8068 28.4894 10.1001 28.0788 9.65346L27.0389 8.52012C26.8998 8.37346 26.8468 8.16679 26.8932 7.96679L27.2309 6.46012C27.3635 5.86679 26.6548 5.46012 26.211 5.87346L25.085 6.92012C24.9394 7.06012 24.7274 7.11346 24.5354 7.06679L23.0385 6.72679C22.4491 6.59346 22.0384 7.30013 22.4491 7.74679L23.4889 8.88012C23.628 9.02679 23.6809 9.23346 23.6347 9.43345L23.2968 10.9401C23.1644 11.5335 23.8731 11.9401 24.3168 11.5268L25.4427 10.4801C25.5884 10.3401 25.8003 10.2868 25.9925 10.3335Z" fill="white"/>
</g>
</g>
<defs>
<clipPath id="clip0_25248_8204">
<rect width="38" height="36" fill="white"/>
</clipPath>
</defs>
</svg>
