<svg width="16" height="17" viewBox="0 0 16 17" fill="none" xmlns="http://www.w3.org/2000/svg">
<path fill-rule="evenodd" clip-rule="evenodd" d="M6.67382 5.9157C5.7202 7.34224 5.60472 7.47885 5.35187 7.47885C5.15064 7.47885 4.75948 7.24362 3.92276 6.61959C3.28916 6.14704 2.71051 5.73731 2.6369 5.70908C2.43056 5.62988 2.22119 5.86122 2.22119 6.16855C2.22119 6.42159 2.71913 9.82795 2.84551 10.4394L2.89941 10.6999H8.00336H13.1073L13.1607 10.392C13.3607 9.23764 13.7791 6.37782 13.7791 6.16485C13.7791 5.8941 13.6293 5.67885 13.4408 5.67885C13.3798 5.67885 12.7893 6.08385 12.1286 6.57885C11.2484 7.23832 10.853 7.47885 10.6494 7.47885C10.3953 7.47885 10.2813 7.34423 9.32646 5.9157C8.36668 4.47987 8.25868 4.35254 8.00014 4.35254C7.7416 4.35254 7.6336 4.47987 6.67382 5.9157ZM2.88435 12.1555C2.88435 12.6221 2.92878 12.815 3.08074 13.0082L3.27703 13.2578H8.00014H12.7232L12.9195 13.0082C13.0715 12.815 13.1159 12.6221 13.1159 12.1555V11.5525H8.00014H2.88435V12.1555Z" fill="#FFC547"/>
</svg>
