<svg width="27" height="40" viewBox="0 0 27 40" fill="none" xmlns="http://www.w3.org/2000/svg">
<g clip-path="url(#clip0_183_3079)">
<path d="M13.1191 19.3036C13.1191 16.1528 15.6741 13.5994 18.8241 13.5994H19.6493C19.6718 13.6001 19.6965 13.5986 19.7198 13.5986C23.2543 13.5986 26.1202 16.4654 26.1202 19.9991C26.1202 23.5329 23.2543 26.3989 19.7198 26.3989C19.6965 26.3989 19.6718 26.3981 19.6485 26.3981L18.8241 26.3989C15.6741 26.3989 13.1191 23.8439 13.1191 20.6939V19.3036Z" fill="#00B6FF"/>
<path d="M0.188477 32.8002C0.188477 29.2657 3.05446 26.3989 6.58898 26.3989L13.1191 26.3997V32.7342C13.1191 36.3055 10.1917 39.1992 6.62045 39.1992C3.08669 39.1992 0.188477 36.3339 0.188477 32.8002Z" fill="#24CB71"/>
<path d="M13.1191 0.799578V13.5991H19.6493C19.6718 13.5983 19.6965 13.5998 19.7198 13.5998C23.2543 13.5998 26.1202 10.7331 26.1202 7.19933C26.1202 3.66481 23.2543 0.798828 19.7198 0.798828C19.6965 0.798828 19.6718 0.799578 19.6485 0.799578H13.1191Z" fill="#FF7237"/>
<path d="M0.188477 7.19881C0.188477 10.7333 3.05446 13.5993 6.58898 13.5993H13.1191V0.799805H6.58823C3.05446 0.799805 0.188477 3.66504 0.188477 7.19881Z" fill="#FF3737"/>
<path d="M0.188477 19.9991C0.188477 23.5336 3.05446 26.3996 6.58898 26.3996H13.1191V13.6001H6.58823C3.05446 13.6001 0.188477 16.4653 0.188477 19.9991Z" fill="#874FFF"/>
</g>
<defs>
<clipPath id="clip0_183_3079">
<rect width="25.9318" height="38.4" fill="white" transform="translate(0.188477 0.799316)"/>
</clipPath>
</defs>
</svg>
