<svg width="38" height="38" viewBox="0 0 38 38" fill="none" xmlns="http://www.w3.org/2000/svg">
<path d="M29.1334 37.9768C24.5297 38.3972 20.6785 33.0014 17.7292 30.2654C16.2363 41.0175 -0.0091365 39.9968 3.85557e-06 29.0924C0.00609742 24.51 3.85557e-06 13.3162 3.85557e-06 8.88007C3.85557e-06 7.28356 0.438741 5.67791 1.25833 4.316C2.81828 1.67444 5.8285 -0.0317555 8.89661 0.00175906C13.5186 0.00785261 24.6454 -0.0043345 29.1334 0.00175906C40.05 0.00175906 41.0859 16.2441 30.2972 17.7066L35.4158 22.8191C41.0402 28.1083 36.8204 38.2114 29.1303 37.9798L29.1334 37.9768ZM26.6533 31.5786C29.825 34.8478 34.8918 29.784 31.6226 26.6154L22.7473 17.7523H17.7841V22.7155L25.4559 30.3751L26.6533 31.5786ZM5.37453 29.0954C5.30141 33.6382 12.4735 33.6534 12.4035 29.0954V8.87702C12.4644 6.61022 10.0696 4.81262 7.90336 5.51033C7.80891 5.53775 7.72056 5.56517 7.63829 5.59869C6.27943 6.10141 5.33492 7.49378 5.37453 8.94405V29.0954ZM29.1334 12.3839C33.6944 12.457 33.6883 5.29401 29.1334 5.36713H17.0803C17.9943 7.29574 17.7628 10.2968 17.778 12.3839H29.1334Z" fill="#3FDFA3"/>
</svg>
