<svg width="18" height="16" viewBox="0 0 18 16" fill="none" xmlns="http://www.w3.org/2000/svg">
<path d="M17.9886 3.70669C17.9085 5.49812 16.685 7.95114 14.3188 11.0645C11.8722 14.3167 9.80226 15.9427 8.10905 15.9427C7.06045 15.9427 6.17246 14.9526 5.44762 12.9718C4.96317 11.1562 4.47936 9.34063 3.99513 7.52502C3.45649 5.54533 2.87905 4.55419 2.26168 4.55419C2.12707 4.55419 1.65598 4.84391 0.849463 5.42099L0.00280762 4.30551C0.884167 3.51407 1.75955 2.71572 2.62888 1.91053C3.81328 0.863713 4.70246 0.313256 5.29502 0.257579C6.69549 0.120012 7.5575 1.0991 7.88102 3.19483C8.23065 5.45593 8.47252 6.86235 8.60853 7.41281C9.01215 9.28868 9.45624 10.2254 9.9416 10.2254C10.3182 10.2254 10.884 9.61715 11.6383 8.40043C12.3919 7.18335 12.7956 6.25743 12.8501 5.62138C12.9573 4.57112 12.5535 4.0447 11.6383 4.0447C11.2075 4.0447 10.7634 4.14608 10.3066 4.34648C11.1908 1.38396 12.8805 -0.0548159 15.3745 0.0272648C17.2235 0.0827267 18.0951 1.3092 17.9886 3.70669Z" fill="#32B8E8"/>
</svg>
