<svg width="53" height="28" viewBox="0 0 53 28" fill="none" xmlns="http://www.w3.org/2000/svg">
<path d="M0 1.91453C0 0.857166 0.850277 0 1.89915 0H11.751C19.4208 0 25.6385 6.26801 25.6385 14C25.6385 21.732 19.4208 28 11.751 28H1.89915C0.850278 28 0 27.1428 0 26.0855V1.91453Z" fill="#000"/>
<path d="M34.6562 5.04341C36.3206 1.77436 37.1528 0.139842 38.4577 0.139842C39.7626 0.139842 40.5949 1.77436 42.2593 5.0434L50.7529 21.7253C52.1827 24.5335 52.8976 25.9376 52.2728 26.9688C51.6481 28 50.0825 28 46.9513 28H29.9642C26.833 28 25.2674 28 24.6426 26.9688C24.0179 25.9376 24.7328 24.5335 26.1626 21.7253L34.6562 5.04341Z" fill="#000"/>
</svg>
