<svg width="24" height="24" viewBox="0 0 24 24" fill="none" xmlns="http://www.w3.org/2000/svg">
<path fill-rule="evenodd" clip-rule="evenodd" d="M20.2216 4.16683C20.4318 4.33678 20.5343 4.60669 20.4898 4.87331L17.9898 19.8733C17.9477 20.1259 17.7796 20.3396 17.544 20.44C17.3084 20.5404 17.0379 20.5136 16.8265 20.369L11.0913 16.4449L8.28266 19.278C8.06867 19.4939 7.74558 19.5592 7.46452 19.4435C7.18347 19.3278 7.00003 19.0539 7.00003 18.75V13.9005L0.643966 12.9925C0.307131 12.9444 0.0448924 12.6755 0.00516253 12.3376C-0.0345673 11.9997 0.158168 11.6773 0.474657 11.5524L19.4747 4.05239C19.7261 3.95315 20.0114 3.99687 20.2216 4.16683ZM8.50003 14.6719L9.8328 15.5838L8.50003 16.9282V14.6719ZM11.4332 14.8613C11.4256 14.8559 11.4179 14.8506 11.4101 14.8455L9.06262 13.2393L18.7142 6.4028L16.7035 18.4673L11.4332 14.8613ZM14.248 7.72817L3.65916 11.908L7.56033 12.4653L14.248 7.72817Z" fill="#292927"/>
</svg>
