<svg width="16" height="18" viewBox="0 0 16 18" fill="none" xmlns="http://www.w3.org/2000/svg">
<path d="M11.7169 8.11125C11.6413 8.075 11.565 8.04063 11.4875 8.00688C11.3525 5.51813 9.9925 4.09312 7.70875 4.07875C7.69813 4.07875 7.68812 4.07875 7.6775 4.07875C6.31187 4.07875 5.17562 4.66188 4.47625 5.7225L5.73187 6.58375C6.25437 5.79125 7.07375 5.6225 7.6775 5.6225C7.68437 5.6225 7.69125 5.6225 7.69813 5.6225C8.45 5.6275 9.0175 5.84562 9.38438 6.2725C9.65188 6.58313 9.83062 7.01188 9.91875 7.55312C9.25187 7.44 8.53125 7.405 7.76063 7.44938C5.58938 7.57438 4.19375 8.84062 4.2875 10.6C4.335 11.4925 4.78 12.26 5.53937 12.7619C6.18187 13.1856 7.00875 13.3931 7.86875 13.3463C9.00437 13.2837 9.895 12.8506 10.5163 12.0587C10.9881 11.4569 11.2869 10.6775 11.4188 9.69562C11.96 10.0225 12.3606 10.4519 12.5825 10.9688C12.9594 11.8469 12.9813 13.29 11.8038 14.4662C10.7719 15.4969 9.53187 15.9431 7.6575 15.9569C5.57875 15.9412 4.00625 15.275 2.98375 13.975C2.02625 12.7581 1.53188 11.0006 1.51312 8.75063C1.53188 6.50125 2.02625 4.74312 2.98375 3.52625C4.00625 2.22687 5.57812 1.56 7.6575 1.54437C9.75125 1.56 11.3513 2.23 12.4125 3.53562C12.9331 4.17625 13.3256 4.98125 13.5838 5.92L15.0556 5.5275C14.7419 4.37188 14.2487 3.37562 13.5775 2.55C12.2169 0.875625 10.2269 0.018125 7.6625 0H7.6525C5.09375 0.0175 3.12563 0.87875 1.80375 2.55937C0.6275 4.055 0.020625 6.13563 0 8.74375V8.75V8.75625C0.020625 11.3644 0.6275 13.4456 1.80375 14.9406C3.12563 16.6212 5.09375 17.4825 7.6525 17.5H7.6625C9.9375 17.4844 11.5413 16.8888 12.8625 15.5688C14.5906 13.8419 14.5388 11.6775 13.9694 10.3487C13.5606 9.39562 12.7812 8.62187 11.7162 8.11063L11.7169 8.11125ZM7.78875 11.8044C6.8375 11.8581 5.84875 11.4306 5.8 10.5163C5.76375 9.83813 6.2825 9.08125 7.8475 8.99063C8.02688 8.98 8.2025 8.975 8.375 8.975C8.94313 8.975 9.475 9.03 9.95813 9.13562C9.77812 11.3869 8.72063 11.7531 7.78875 11.8044Z" fill="black"/>
</svg>
